HIERARCHY
ROOT Hips
{
	OFFSET -0.001795 -0.223333 0.028219
	CHANNELS 6 Xposition Yposition Zposition Zrotation Yrotation Xrotation 
	JOINT LeftUpLeg
	{
		OFFSET 0.069520 -0.091406 -0.006815
		CHANNELS 3 Zrotation Yrotation Xrotation
		JOINT LeftLeg
		{
			OFFSET 0.034277 -0.375199 -0.004496
			CHANNELS 3 Zrotation Yrotation Xrotation
			JOINT LeftFoot
			{
				OFFSET -0.013596 -0.397961 -0.043693
				CHANNELS 3 Zrotation Yrotation Xrotation
				JOINT LeftToe
				{
					OFFSET 0.026358 -0.055791 0.119288
					CHANNELS 3 Zrotation Yrotation Xrotation
					End Site
					{
						OFFSET 0.000000 0.000000 0.000000
					}
				}
			}
		}
	}
	JOINT RightUpLeg
	{
		OFFSET -0.067670 -0.090522 -0.004320
		CHANNELS 3 Zrotation Yrotation Xrotation
		JOINT RightLeg
		{
			OFFSET -0.038290 -0.382569 -0.008850
			CHANNELS 3 Zrotation Yrotation Xrotation
			JOINT RightFoot
			{
				OFFSET 0.015774 -0.398415 -0.042312
				CHANNELS 3 Zrotation Yrotation Xrotation
				JOINT RightToe
				{
					OFFSET -0.025372 -0.048144 0.123348
					CHANNELS 3 Zrotation Yrotation Xrotation
					End Site
					{
						OFFSET 0.000000 0.000000 0.000000
					}
				}
			}
		}
	}
	JOINT Spine
	{
		OFFSET -0.002533 0.108963 -0.026696
		CHANNELS 3 Zrotation Yrotation Xrotation
		JOINT Spine1
		{
			OFFSET 0.005487 0.135180 0.001092
			CHANNELS 3 Zrotation Yrotation Xrotation
			JOINT Spine2
			{
				OFFSET 0.001457 0.052922 0.025425
				CHANNELS 3 Zrotation Yrotation Xrotation
				JOINT Neck
				{
					OFFSET -0.002778 0.213870 -0.042857
					CHANNELS 3 Zrotation Yrotation Xrotation
					JOINT Head
					{
						OFFSET 0.005152 0.064970 0.051349
						CHANNELS 3 Zrotation Yrotation Xrotation
						End Site
						{
							OFFSET 0.000000 0.000000 0.000000
						}
					}
				}
				JOINT LeftShoulder
				{
					OFFSET 0.078845 0.121749 -0.034090
					CHANNELS 3 Zrotation Yrotation Xrotation
					JOINT LeftArm
					{
						OFFSET 0.090977 0.030469 -0.008868
						CHANNELS 3 Zrotation Yrotation Xrotation
						JOINT LeftForeArm
						{
							OFFSET 0.259612 -0.012772 -0.027456
							CHANNELS 3 Zrotation Yrotation Xrotation
							JOINT LeftHand
							{
								OFFSET 0.249234 0.008986 -0.001171
								CHANNELS 3 Zrotation Yrotation Xrotation
								End Site
								{
									OFFSET 0.000000 0.000000 0.000000
								}
							}
						}
					}
				}
				JOINT RightShoulder
				{
					OFFSET -0.081759 0.118833 -0.038615
					CHANNELS 3 Zrotation Yrotation Xrotation
					JOINT RightArm
					{
						OFFSET -0.096012 0.032551 -0.009143
						CHANNELS 3 Zrotation Yrotation Xrotation
						JOINT RightForeArm
						{
							OFFSET -0.253742 -0.013329 -0.021401
							CHANNELS 3 Zrotation Yrotation Xrotation
							JOINT RightHand
							{
								OFFSET -0.255298 0.007772 -0.005559
								CHANNELS 3 Zrotation Yrotation Xrotation
								End Site
								{
									OFFSET 0.000000 0.000000 0.000000
								}
							}
						}
					}
				}
			}
		}
	}
}
MOTION
Frames: 7
Frame Time: 0.050000
0.000000 0.932007 0.000000 -0.794270 -7.316673 5.335022 3.563341 -0.899983 -17.977047 -1.128694 0.015065 12.319913 2.822028 7.663878 8.209759 0.000000 0.000000 0.000000 -1.259352 0.418119 -4.146358 0.291458 0.561128 11.896955 1.151141 1.679347 1.807754 0.000000 0.000000 0.000000 -1.783247 -0.174443 26.796644 3.481918 -0.255026 -26.067771 0.095431 6.845566 27.969667 1.421434 0.203275 -12.537681 0.000000 0.000000 0.000000 -30.145580 -4.362041 0.116145 -38.319570 -1.084314 -6.044962 -11.513319 -39.231607 5.873106 0.000000 0.000000 0.000000 24.892790 4.365510 2.244535 42.913553 -1.294131 -7.131314 7.630831 39.020526 4.554427 0.000000 0.000000 0.000000 
0.000921 0.933778 -0.000020 -0.665472 -8.004109 4.923757 3.202100 -0.879443 -16.507645 -0.529883 -0.098207 10.405375 2.587282 7.387447 9.310757 0.000000 0.000000 0.000000 -1.368126 0.292559 -2.716114 0.132476 0.489268 10.024096 1.177868 1.547774 2.062588 0.000000 0.000000 0.000000 -2.580418 0.103234 27.566309 3.938851 -0.382310 -25.748803 0.486190 7.398152 28.656951 0.678591 0.884777 -13.103282 0.000000 0.000000 0.000000 -30.148710 -4.497429 0.144039 -39.105208 -0.863481 -6.267874 -14.910142 -39.496400 7.157390 0.000000 0.000000 0.000000 24.736594 4.783592 2.589654 42.776710 -0.595252 -6.970992 8.477717 39.267293 4.890611 0.000000 0.000000 0.000000 
0.001506 0.933834 0.000243 -0.550068 -7.412621 4.657452 2.525312 -0.940256 -15.372032 0.333070 -0.267192 8.775137 2.311842 6.936213 9.152823 0.000000 0.000000 0.000000 -1.147416 0.194520 -1.678636 0.296828 0.403445 9.152046 0.131629 -0.569469 1.432009 0.000000 0.000000 0.000000 -2.426879 0.033414 28.321301 4.413583 -0.543472 -24.838520 -0.485320 7.825221 27.257124 0.579477 1.035292 -12.549034 0.000000 0.000000 0.000000 -30.114378 -4.786809 -0.073445 -39.235908 -0.697083 -6.117772 -14.352925 -38.648863 6.707398 0.000000 0.000000 0.000000 26.043661 4.443947 2.654500 43.219197 0.053196 -6.815662 7.200083 37.484159 4.291270 0.000000 0.000000 0.000000 
0.002191 0.933987 0.000290 -0.721132 -7.222067 5.329597 1.974883 -1.045915 -15.915465 1.578860 -0.506539 8.434149 2.244486 6.848251 9.221249 0.000000 0.000000 0.000000 -0.670836 0.169460 -1.572659 -0.458015 0.481935 8.348683 0.240075 0.233138 0.578351 0.000000 0.000000 0.000000 -2.747124 0.132711 29.270394 4.352548 -0.446098 -25.750050 -0.228295 7.492334 28.098840 1.097469 0.714759 -14.045112 0.000000 0.000000 0.000000 -29.004258 -4.479149 -0.086635 -40.643538 -0.479507 -6.474285 -14.645850 -38.703852 6.869667 0.000000 0.000000 0.000000 24.607136 3.853404 2.212978 44.938600 -1.260459 -7.480709 8.491481 38.262950 4.879922 0.000000 0.000000 0.000000 
0.002762 0.933788 0.000003 -0.597820 -7.197929 5.135721 1.634381 -1.062020 -15.369048 1.871828 -0.540958 7.771049 2.230793 6.816877 9.174006 0.000000 0.000000 0.000000 -0.513491 0.173461 -1.675257 -0.912592 0.546289 8.185580 0.149560 -0.573817 1.514560 0.000000 0.000000 0.000000 -2.765116 0.138516 29.340594 3.880730 -0.344343 -25.826683 -0.715181 7.266640 28.328951 1.709298 0.153394 -13.388809 0.000000 0.000000 0.000000 -28.060206 -4.466278 0.081272 -40.671430 0.299220 -6.775011 -15.374086 -38.738247 7.135533 0.000000 0.000000 0.000000 25.848984 4.278713 2.420600 44.325679 -1.990256 -7.639054 8.595130 37.878404 4.793946 0.000000 0.000000 0.000000 
0.003173 0.933902 -0.000395 -0.573068 -7.478452 4.819428 1.640295 -1.054314 -15.371670 1.760720 -0.538858 8.405998 2.360869 7.020300 9.194026 0.000000 0.000000 0.000000 -0.715888 0.126210 -1.082371 -0.718599 0.471326 7.452969 0.270484 -0.491965 1.848812 0.000000 0.000000 0.000000 -3.964977 0.550509 30.405884 5.141051 -0.600677 -25.976989 -0.522591 7.455085 29.227310 0.992364 0.828625 -14.639667 0.000000 0.000000 0.000000 -28.953223 -4.182279 -0.177502 -40.271589 0.700091 -6.886139 -15.940704 -39.290723 7.460326 0.000000 0.000000 0.000000 25.704189 4.655050 2.732073 43.685383 -1.889048 -7.607954 8.499476 38.511391 4.858124 0.000000 0.000000 0.000000 
0.003741 0.933306 -0.000399 -0.528815 -7.261820 5.287260 1.691059 -1.103282 -16.281228 1.540721 -0.516748 9.024239 2.306754 6.922889 9.065655 0.000000 0.000000 0.000000 -0.879191 0.159789 -1.382749 -0.528420 0.439966 7.453493 0.132985 -0.386020 1.141885 0.000000 0.000000 0.000000 -4.150500 0.617429 31.032683 5.349714 -0.610685 -26.247361 -0.557889 7.979916 29.494627 0.686589 1.165525 -14.578709 0.000000 0.000000 0.000000 -28.771885 -4.765599 -0.025180 -40.253238 0.826977 -6.882079 -15.647683 -40.271122 7.497354 0.000000 0.000000 0.000000 26.429133 4.536771 2.922407 43.178959 -2.020006 -7.656235 7.565745 38.249107 4.529543 0.000000 0.000000 0.000000 
